#!OML:ASF E:\acrobat2\Project_11_07_03\Capture day 1\Session 1\Acrobat.ASF
:FULLY-SPECIFIED
:DEGREES
533
root 11.0266 11.9914 -5.16565 223.806 1.83939 -180.042
lowerback 38.1016 -2.74315 -3.41375
upperback 18.4394 1.52793 -1.54552
thorax 1.6558 2.52681 -0.262918
lowerneck 2.6184 -3.07875 -3.75046
upperneck -25.8671 -2.77336 2.90384
head -8.32031 -0.320358 1.69833
rclavicle 3.08116e-015 -2.21769e-014
rhumerus 27.4219 12.4872 -85.0459
rradius 16.537
rwrist -11.712
rhand -8.93658 316.498
rfingers 7.12502
rthumb 17.0075 -432.777
lclavicle 3.08116e-015 -2.21769e-014
lhumerus 36.3769 -35.7478 68.1882
lradius 15.5775
lwrist 23.5582
lhand -31.7251 0.487018
lfingers 7.12502
lthumb -4.98333 30.4084
rfemur -42.3525 3.05051 -67.0868
rtibia -1.29161
rfoot -65.3609 -19.9783
rtoes 45.3661
lfemur -37.1372 21.5911 42.3029
ltibia -10.2418
lfoot -39.7874 8.69871
ltoes 55.6029
534
root 11.0331 12.0368 -5.30334 224.273 1.67342 -179.946
lowerback 37.5448 -2.81118 -3.12623
upperback 18.4188 1.474 -1.51466
thorax 1.79648 2.49341 -0.348623
lowerneck 2.06058 -2.88981 -5.00638
upperneck -24.7325 -2.40965 4.18514
head -7.80216 -0.229892 2.29987
rclavicle -8.74653e-015 2.31087e-015
rhumerus 27.6564 12.1147 -84.517
rradius 16.6372
rwrist -10.2075
rhand -7.36701 316.358
rfingers 7.12502
rthumb 18.5178 -432.78
lclavicle -8.74653e-015 2.31087e-015
lhumerus 36.3173 -34.6318 68.3396
lradius 15.6494
lwrist 21.5243
lhand -28.4687 2.70524
lfingers 7.12502
lthumb -1.83859 32.6771
rfemur -42.1714 3.04035 -66.7496
rtibia -1.29397
rfoot -65.5066 -19.4671
rtoes 45.0933
lfemur -36.9235 21.5247 42.5725
ltibia -10.3129
lfoot -39.9099 8.22112
ltoes 55.3942
535
root 11.0327 12.1127 -5.42747 224.317 1.47426 -179.85
lowerback 37.9439 -2.89155 -2.82979
upperback 18.2545 1.41891 -1.45528
thorax 1.48137 2.47952 -0.443324
lowerneck 2.32652 -2.9335 -4.84168
upperneck -25.0312 -2.49988 3.9835
head -7.95311 -0.255855 2.21784
rclavicle 5.36719e-015 6.42323e-015
rhumerus 27.8331 12.2565 -83.5713
rradius 16.7864
rwrist -8.51887
rhand -6.45656 316.882
rfingers 7.12502
rthumb 19.3934 -432.171
lclavicle 5.36719e-015 6.42323e-015
lhumerus 36.2549 -33.28 68.733
lradius 15.6138
lwrist 19.3056
lhand -24.5993 4.80466
lfingers 7.12502
lthumb 1.89859 34.776
rfemur -41.9381 3.84286 -66.4042
rtibia -1.38139
rfoot -66.0272 -18.4225
rtoes 45.4417
lfemur -36.6243 20.8594 42.7552
ltibia -10.4094
lfoot -40.1092 7.65556
ltoes 55.3007
536
root 11.0325 12.1763 -5.55381 224.388 1.3989 -179.887
lowerback 38.0941 -2.90258 -2.74438
upperback 18.1288 1.38187 -1.37649
thorax 1.29141 2.45273 -0.404113
lowerneck 2.52682 -2.96677 -4.64581
upperneck -25.1582 -2.60613 3.66506
head -8.03755 -0.292675 2.0901
rclavicle -5.06901e-015 -4.5969e-016
rhumerus 27.9184 12.4852 -82.5377
rradius 17.0522
rwrist -6.17318
rhand -5.96473 317.698
rfingers 7.12502
rthumb 19.8663 -431.307
lclavicle -5.06901e-015 -4.5969e-016
lhumerus 36.2645 -31.7836 69.2401
lradius 15.3974
lwrist 16.9213
lhand -19.834 6.29136
lfingers 7.12502
lthumb 6.50011 36.1716
rfemur -41.6405 4.55904 -66.2781
rtibia -1.55359
rfoot -66.5347 -17.7961
rtoes 45.5224
lfemur -36.2074 20.2699 42.7755
ltibia -10.6921
lfoot -40.3036 7.09172
ltoes 55.2009
537
root 11.0272 12.2369 -5.67537 224.319 1.32319 -179.967
lowerback 38.3732 -3.00795 -2.5986
upperback 17.9968 1.25972 -1.40443
thorax 1.05709 2.40296 -0.484798
lowerneck 2.59446 -2.94354 -4.6145
upperneck -25.1537 -2.58909 3.6084
head -8.05085 -0.285993 2.06598
rclavicle -1.12313e-014 -7.29291e-015
rhumerus 28.0127 12.228 -82.0615
rradius 17.166
rwrist -2.7566
rhand -5.13661 318.599
rfingers 7.12502
rthumb 20.6622 -430.321
lclavicle -1.12313e-014 -7.29291e-015
lhumerus 36.382 -30.2883 69.5551
lradius 14.9887
lwrist 14.58
lhand -14.2499 6.70148
lfingers 7.12502
lthumb 11.8881 36.344
rfemur -41.2538 5.1903 -65.9973
rtibia -1.72716
rfoot -66.7775 -17.2319
rtoes 45.433
lfemur -35.7922 19.5127 42.7558
ltibia -10.9538
lfoot -40.5599 6.70122
ltoes 54.9886
538
root 11.029 12.2902 -5.80389 224.088 1.22583 -179.959
lowerback 38.6856 -3.14453 -2.43986
upperback 17.9396 1.14832 -1.48717
thorax 0.897306 2.37474 -0.629376
lowerneck 2.71691 -2.91085 -4.57332
upperneck -25.3824 -2.53147 3.58984
head -8.15434 -0.246002 2.05226
rclavicle -8.44835e-015 -5.09386e-015
rhumerus 28.2527 11.8324 -81.8463
rradius 17.1557
rwrist 0.782223
rhand -4.11909 319.296
rfingers 7.12502
rthumb 21.6396 -429.515
lclavicle -8.44835e-015 -5.09386e-015
lhumerus 36.8388 -29.125 69.2383
lradius 14.5668
lwrist 12.7355
lhand -10.1767 5.42243
lfingers 7.12502
lthumb 15.8135 34.7966
rfemur -40.8092 6.36452 -65.7574
rtibia -2.11017
rfoot -67.3827 -16.2818
rtoes 45.4998
lfemur -35.0922 18.7123 42.889
ltibia -11.3769
lfoot -40.7891 6.40507
ltoes 54.7542
539
root 11.0545 12.3116 -5.88065 225.65 1.34632 -179.823
lowerback 36.5601 -2.84625 -2.50838
upperback 17.7926 1.21383 -1.38947
thorax 1.39416 2.29117 -0.465084
lowerneck 2.86114 -2.88975 -4.48101
upperneck -25.5269 -2.52211 3.44407
head -8.2349 -0.229291 1.9903
rclavicle 6.75868e-015 6.33626e-015
rhumerus 28.5408 11.8503 -81.2529
rradius 17.1395
rwrist 3.28271
rhand -3.25937 319.667
rfingers 7.12502
rthumb 22.465 -429.046
lclavicle 6.75868e-015 6.33626e-015
lhumerus 37.3466 -28.3703 68.6474
lradius 14.3348
lwrist 11.131
lhand -6.28055 3.83078
lfingers 7.12502
lthumb 19.5626 32.8666
rfemur -41.3667 5.02548 -65.959
rtibia -1.84039
rfoot -67.8084 -15.3645
rtoes 45.7655
lfemur -35.4099 20.0374 43.0997
ltibia -11.3205
lfoot -40.9834 5.98932
ltoes 54.6472
